<svg width="940" height="176" viewBox="0 0 940 176" fill="none" xmlns="http://www.w3.org/2000/svg">
<path fill-rule="evenodd" clip-rule="evenodd" d="M53.6158 120.728L38.8551 154.958H0L67.7651 0.000152588H117.259L185.487 154.958H145.707L131.025 120.728H53.6158ZM117.634 89.5056L103.151 55.7387L93.6685 31.6855H91.1244L81.6419 55.7387L67.0801 89.5056H117.634Z" fill="white"/>
<path fill-rule="evenodd" clip-rule="evenodd" d="M332.812 154.958H201.676V9.15527e-05H332.812V31.2229H236.368V61.5206H329.343V92.5122H236.368V123.735H332.812V154.958Z" fill="white"/>
<path d="M391.326 154.958H356.634V9.15527e-05H442.208C455.005 9.15527e-05 465.875 1.81178 474.818 5.43517C483.761 9.05856 490.545 14.3395 495.171 21.2779C499.796 28.2163 502.109 36.6194 502.109 46.4874C502.109 54.9677 500.49 62.2145 497.252 68.2278C494.014 74.241 489.158 79.0594 482.682 82.6828C476.206 86.3062 468.111 88.5804 458.397 89.5055V91.3558C465.336 93.206 470.501 95.9814 473.893 99.6818C477.285 103.382 480.446 107.931 483.376 113.327L505.81 154.958H465.567L444.289 114.715C442.131 110.706 439.895 107.545 437.582 105.233C435.269 102.92 432.301 101.262 428.678 100.26C425.054 99.2578 420.236 98.7567 414.223 98.7567H391.326V154.958ZM391.326 31.2229V72.6221H441.976C450.148 72.6221 456.162 71.1958 460.016 68.3434C463.871 65.4909 465.798 59.9788 465.798 51.8069C465.798 44.0975 463.871 38.7395 460.016 35.7329C456.162 32.7262 450.148 31.2229 441.976 31.2229H391.326Z" fill="white"/>
<path fill-rule="evenodd" clip-rule="evenodd" d="M559.467 95.2875V154.958H524.775V9.15527e-05H559.467V61.5206H598.091L639.258 9.15527e-05H680.889L627.001 76.3226L680.195 154.958H638.565L598.553 95.2875H559.467Z" fill="white"/>
<path d="M757.905 154.958C740.945 154.958 726.181 151.776 713.615 145.413C701.049 139.05 691.412 130.067 684.705 118.464C677.998 106.861 674.644 93.1992 674.644 77.4789C674.644 61.7585 677.998 48.0968 684.705 36.4937C691.412 24.8906 701.049 15.9075 713.615 9.54452C726.181 3.18153 740.945 3.05176e-05 757.905 3.05176e-05C775.482 3.05176e-05 790.516 3.18153 803.005 9.54452C815.494 15.9075 825.131 24.8906 831.915 36.4937C838.699 48.0968 842.091 61.7585 842.091 77.4789C842.091 93.1992 838.699 106.861 831.915 118.464C825.131 130.067 815.494 139.05 803.005 145.413C790.516 151.776 775.482 154.958 757.905 154.958ZM757.905 122.619C769.315 122.619 778.451 121.159 785.312 118.239C792.173 115.32 797.184 110.566 800.345 103.979C803.506 97.3913 805.086 88.558 805.086 77.4789C805.086 66.25 803.506 57.3793 800.345 50.8666C797.184 44.3539 792.173 39.6377 785.312 36.7182C778.451 33.7988 769.315 32.339 757.905 32.339C746.65 32.339 737.63 33.7988 730.845 36.7182C724.061 39.6377 719.127 44.3539 716.043 50.8666C712.96 57.3793 711.418 66.25 711.418 77.4789C711.418 88.558 712.96 97.3913 716.043 103.979C719.127 110.566 724.061 115.32 730.845 118.239C737.63 121.159 746.65 122.619 757.905 122.619Z" fill="white"/>
<path d="M940 151.103H851.343V175.85H940V151.103Z" fill="white"/>
</svg>
